<?xml version="1.0" encoding="utf-8"?>
<!-- Svg Vector Icons : http://www.onlinewebfonts.com/icon -->
<!DOCTYPE svg PUBLIC "-//W3C//DTD SVG 1.1//EN" "http://www.w3.org/Graphics/SVG/1.1/DTD/svg11.dtd">
<svg version="1.1" xmlns="http://www.w3.org/2000/svg" xmlns:xlink="http://www.w3.org/1999/xlink" x="0px" y="0px" viewBox="0 0 1000 1000" enable-background="new 0 0 1000 1000" xml:space="preserve">
<metadata> Svg Vector Icons : http://www.onlinewebfonts.com/icon </metadata>
<g><g transform="translate(0.000000,511.000000) scale(0.100000,-0.100000)"><path d="M4510.4,4983.7c-1722.3-181.3-3060.6-1357-3335.2-2930c-53.3-301.3-61.3-978.5-13.3-1293c16-117.3,77.3-397.2,138.6-623.8c69.3-272,112-498.6,120-661.2c21.3-333.3,48-367.9,306.6-391.9c106.6-10.6,207.9-32,224-50.6c45.3-45.3,165.3-394.6,216-618.5c29.3-130.7,42.6-346.6,48-706.5c5.3-602.5,24-679.9,263.9-1037.1c418.6-626.5,1037.1-1098.4,1746.3-1335.7c890.5-298.6,1863.6-58.7,2714.1,671.8c325.3,277.3,634.5,679.8,775.8,1015.8c66.7,157.3,69.3,186.6,64,578.5c-2.7,250.6,10.6,511.9,34.6,666.5c37.3,250.6,176,703.8,234.6,765.2c18.7,18.7,120,40,226.6,50.6c258.6,24,285.3,58.7,306.6,391.9c8,165.3,50.7,386.6,122.7,661.2c58.6,226.6,120,509.2,136,629.2c45.3,338.6,37.3,970.4-13.3,1277C8501.5,3951.9,6653.9,5210.3,4510.4,4983.7z M5654.2,4543.8c391.9-61.3,682.5-154.6,1039.8-327.9c551.9-271.9,981.1-645.2,1295.7-1130.4c184-285.3,295.9-541.2,391.9-895.8c64-237.3,69.3-298.6,69.3-815.8c0-597.2-2.7-618.5-184-1287.7c-34.7-133.3-72-322.6-82.7-418.6l-18.7-173.3l-96-16C7445.8-623,7112.5-903,6669.9-1700.1c-85.3-152-189.3-317.3-234.6-365.3c-167.9-192-383.9-178.6-434.6,32c-34.6,141.3-106.6,221.3-205.3,221.3c-96,0-207.9-106.6-207.9-194.6c0-85.3-74.6-170.7-160-192c-85.3-18.7-213.3,72-213.3,149.3c0,74.6-69.3,200-120,221.3c-144,53.3-271.9-21.3-295.9-173.3c-32-194.6-218.6-266.6-335.9-125.3c-26.7,29.3-48,82.6-48,120c0,85.3-112,194.6-202.6,194.6c-85.3,0-197.3-93.3-197.3-162.6c0-160-136-258.6-282.6-210.6c-120,40-237.3,181.3-407.9,498.6C2897.5-911,2553.5-623,1932.3-519.1l-98.6,13.3L1815-327.1c-10.7,98.6-48,285.2-82.6,418.6c-176,655.8-181.3,687.9-181.3,1282.4c0,519.9,5.3,578.5,69.3,815.8c239.9,887.8,794.5,1570.3,1613,1991.5C3961.2,4554.4,4787.7,4677.1,5654.2,4543.8z M2897.5-1766.8c90.6-165.3,200-349.3,242.6-410.6c66.7-98.6,74.6-133.3,74.6-335.9c0-269.3,50.7-365.3,197.3-365.3c117.3,0,178.6,53.3,200,170.6l16,98.6l194.6,5.3l192,8v-168c0-133.3,10.7-178.6,53.3-221.3c72-72,205.3-69.3,285.3,5.3c50.6,48,61.3,85.3,61.3,218.6v162.6h184h184l10.7-165.3c13.3-202.6,66.6-274.6,207.9-274.6c141.3,0,194.6,72,207.9,274.6l10.7,165.3h184h183.9v-157.3c0-194.6,64-282.6,205.3-282.6s194.6,74.6,194.6,274.6v168l194.6-8l192-5.3l16-98.6c21.3-117.3,82.7-170.6,200-170.6c146.6,0,197.3,96,197.3,365.3c0,202.6,8,237.3,74.6,335.9c42.7,61.3,152,245.3,242.6,410.6c93.3,162.6,221.3,354.6,282.6,426.6l114.6,128l-53.3-213.3c-40-162.6-58.7-349.3-72-786.5l-18.6-573.2l-82.7-162.6c-319.9-618.5-1085.1-1205-1783.6-1373c-314.6-74.7-831.8-61.3-1117.1,29.3c-669.2,213.3-1349,767.8-1647.6,1343.7l-82.7,162.6l-18.7,573.2c-16,431.9-32,626.5-72,786.5l-53.3,213.3l114.6-128C2676.2-1412.2,2804.2-1604.2,2897.5-1766.8z"/><path d="M3124.1,2240.3c-399.9-141.3-666.5-458.6-738.5-877.1c-53.3-301.3,53.3-658.5,269.3-893.1C2996.1,99.5,3500,3.5,3945.2,222.1c815.8,405.3,815.8,1551.7,2.7,1954.2c-170.6,85.3-226.6,98.6-431.9,109.3C3326.7,2293.6,3252,2285.6,3124.1,2240.3z M3665.3,1851.1c357.3-104,562.5-501.2,450.6-869.1c-40-133.3-210.6-327.9-351.9-399.9c-154.6-82.6-439.9-82.6-591.9-2.6c-245.3,130.6-381.2,343.9-383.9,594.5c0,218.6,42.7,330.6,181.3,482.6c93.3,98.6,165.3,149.3,271.9,184C3422.7,1904.4,3486.7,1904.4,3665.3,1851.1z"/><path d="M6275.4,2243c-194.6-64-298.6-130.6-453.2-287.9c-522.5-535.9-359.9-1415.7,325.3-1748.9c160-77.3,194.6-85.3,453.2-85.3s293.3,5.3,453.2,82.6c253.3,122.6,407.9,269.3,525.2,511.9c98.7,194.6,101.3,213.3,101.3,485.2c0,258.6-5.3,293.3-85.3,458.6c-109.3,231.9-303.9,426.6-530.5,533.2C6835.2,2299,6507.3,2320.3,6275.4,2243z M6803.2,1853.7c431.9-128,626.5-658.5,375.9-1029.1c-343.9-509.2-1109.1-357.2-1242.4,247.9c-58.7,258.6,77.3,567.9,303.9,703.8C6446,1896.4,6595.3,1917.7,6803.2,1853.7z"/><path d="M4785,454c-301.3-160-583.9-741.1-583.9-1205c0-170.6,5.3-186.6,96-287.9c149.3-165.3,330.6-224,703.8-224s554.5,58.7,703.9,224c88,98.7,96,120,96,274.6c0,341.3-167.9,805.2-375.9,1042.4C5230.3,499.4,4993,566,4785,454z M5094.3,43.5c130.6-130.6,306.6-573.2,306.6-773.1c0-56-18.7-72-112-98.7c-64-16-191.9-32-287.9-32c-96,0-223.9,16-285.3,32c-133.3,37.3-141.3,69.3-72,330.6c72,279.9,263.9,605.2,357.3,605.2C5017,107.5,5059.6,78.1,5094.3,43.5z"/></g></g>
</svg>